<?xml version="1.0" encoding="UTF-8"?>
<svg xmlns="http://www.w3.org/2000/svg" viewBox="0 0 600 600">
  <defs>
    <style>.cls-1{fill:#b40863;}.cls-2{fill:#fff;}</style>
  </defs>
  <g id="Layer_2" data-name="Layer 2">
    <g id="Layer_1-2" data-name="Layer 1">
      <g id="Group_1723" data-name="Group 1723">
        <g id="Group_705" data-name="Group 705">
          <g id="Ellipse_159-2" data-name="Ellipse 159-2">
            <circle class="cls-1" cx="300" cy="300" r="300"></circle>
          </g>
        </g>
        <g id="Group_710" data-name="Group 710">
          <g id="Line_519" data-name="Line 519">
            <rect class="cls-2" x="229.67" y="330.83" width="140.53" height="14"></rect>
          </g>
          <g id="Group_706" data-name="Group 706">
            <g id="Path_1136" data-name="Path 1136">
              <polygon class="cls-2" points="364.19 439.08 350.23 438.06 355.03 371.96 414.62 371.96 418.34 311.83 432.31 312.7 427.78 385.96 368.05 385.96 364.19 439.08"></polygon>
            </g>
            <g id="Line_520" data-name="Line 520">
              <rect class="cls-2" x="417.19" y="378.81" width="14" height="59.78" transform="translate(-38.6 44.28) rotate(-5.72)"></rect>
            </g>
          </g>
          <g id="Group_708" data-name="Group 708">
            <g id="Group_707" data-name="Group 707">
              <g id="Path_1137" data-name="Path 1137">
                <path class="cls-2" d="M339.46,266h-2.3a25.83,25.83,0,0,1-25.85-24.72l-2.42-53.52h50.53l5.75,49.36a27.28,27.28,0,0,1,.17,3A25.91,25.91,0,0,1,339.46,266Zm-2.3-14h2.3a11.89,11.89,0,0,0,11.88-11.88,13.1,13.1,0,0,0-.08-1.39l-4.3-37H323.54l1.75,38.89A11.86,11.86,0,0,0,337.16,252Z"></path>
              </g>
              <g id="Path_1138" data-name="Path 1138">
                <path class="cls-2" d="M415.07,266h0a25.73,25.73,0,0,1-25.25-20.26l-12.92-58h49.74l13.26,45.07A25.88,25.88,0,0,1,415.07,266ZM394.35,201.7l9.12,40.94A11.82,11.82,0,0,0,415.06,252h0a11.88,11.88,0,0,0,11.87-11.87,11.92,11.92,0,0,0-.48-3.36l-10.3-35Z"></path>
              </g>
              <g id="Path_1139" data-name="Path 1139">
                <path class="cls-2" d="M185.86,266h-.94a25.89,25.89,0,0,1-25.08-32.27l11.73-46h52.48l-12.93,58A25.73,25.73,0,0,1,185.86,266Zm-3.41-64.24-9,35.43A11.87,11.87,0,0,0,182,251.58a12,12,0,0,0,2.92.37h.94a11.8,11.8,0,0,0,11.59-9.3l9.14-40.94Z"></path>
              </g>
              <g id="Path_1140" data-name="Path 1140">
                <path class="cls-2" d="M265.42,266h-3.94a24.74,24.74,0,0,1-3-.18,25.9,25.9,0,0,1-22.72-28.69l5.74-49.38h52.18l-2.42,53.53A25.83,25.83,0,0,1,265.42,266ZM254,201.7l-4.3,37a11.89,11.89,0,0,0,10.42,13.17,12.77,12.77,0,0,0,1.38.08h3.94a11.85,11.85,0,0,0,11.86-11.35L279,201.7Z"></path>
              </g>
            </g>
            <g id="Line_521" data-name="Line 521">
              <rect class="cls-2" x="167.99" y="154.45" width="257.89" height="14"></rect>
            </g>
          </g>
          <g id="Line_522" data-name="Line 522">
            <rect class="cls-2" x="265.59" y="425.73" width="68.69" height="14"></rect>
          </g>
          <g id="Line_523" data-name="Line 523">
            <rect class="cls-2" x="292.93" y="338.91" width="14" height="93.08"></rect>
          </g>
          <g id="Line_524" data-name="Line 524">
            <rect class="cls-2" x="265.59" y="425.73" width="68.69" height="14"></rect>
          </g>
          <g id="Line_525" data-name="Line 525">
            <rect class="cls-2" x="292.93" y="338.91" width="14" height="93.08"></rect>
          </g>
          <g id="Group_709" data-name="Group 709">
            <g id="Path_1141" data-name="Path 1141">
              <polygon class="cls-2" points="232.2 439.07 228.34 385.96 168.6 385.96 164.07 312.7 178.04 311.83 181.76 371.96 241.36 371.96 246.16 438.05 232.2 439.07"></polygon>
            </g>
            <g id="Line_526" data-name="Line 526">
              <rect class="cls-2" x="142.32" y="401.7" width="59.78" height="14" transform="translate(-251.61 539.34) rotate(-84.28)"></rect>
            </g>
          </g>
        </g>
      </g>
    </g>
  </g>
</svg>
