<?xml version="1.0" encoding="UTF-8"?>
<svg xmlns="http://www.w3.org/2000/svg" viewBox="0 0 300 300">
  <defs>
    <style>.cls-1{fill:#00b982;}.cls-2{fill:#fff;}</style>
  </defs>
  <g id="Layer_2" data-name="Layer 2">
    <g id="Layer_1-2" data-name="Layer 1">
      <g id="Group_1065" data-name="Group 1065">
        <g id="Group_976-2" data-name="Group 976-2">
          <g id="Group_691-2-2" data-name="Group 691-2-2">
            <g id="Ellipse_156-2-2" data-name="Ellipse 156-2-2">
              <circle class="cls-1" cx="150" cy="150" r="150"></circle>
            </g>
          </g>
        </g>
        <g id="Group_508" data-name="Group 508">
          <g id="Group_412" data-name="Group 412">
            <g id="Path_945" data-name="Path 945">
              <path class="cls-2" d="M174.46,194H123.09l-.79-3c-2-7.45-7.88-28.14-11.5-34.36a54.59,54.59,0,0,0-3.23-4.74,45.09,45.09,0,0,1-5-8c-.35-.79-.66-1.55-1-2.31A53,53,0,0,1,97.87,122a51.58,51.58,0,0,1,50.84-52.14h.11a51.6,51.6,0,0,1,50.85,52.2A52.68,52.68,0,0,1,196,141.56c-.3.78-.62,1.55-1,2.3a45.46,45.46,0,0,1-5,8.08,53.91,53.91,0,0,0-3.21,4.71c-3.63,6.22-9.53,26.91-11.5,34.35Zm-45.23-8h39.09c2.05-7.43,7.51-26.49,11.52-33.37,1.14-1.94,2.42-3.69,3.65-5.39a38.09,38.09,0,0,0,4.21-6.64c.29-.64.56-1.29.82-2A44.8,44.8,0,0,0,191.67,122a42.92,42.92,0,1,0-85.8-.06A45,45,0,0,0,109,138.62c.26.66.54,1.32.83,2a38.62,38.62,0,0,0,4.17,6.57,63.57,63.57,0,0,1,3.68,5.43C121.71,159.48,127.18,178.55,129.23,186Z"></path>
            </g>
          </g>
          <g id="Line_424" data-name="Line 424">
            <rect class="cls-2" x="125.83" y="203.73" width="45.9" height="8"></rect>
          </g>
          <g id="Line_425" data-name="Line 425">
            <rect class="cls-2" x="130.72" y="220.31" width="36.12" height="8"></rect>
          </g>
        </g>
      </g>
    </g>
  </g>
</svg>
