<svg xmlns="http://www.w3.org/2000/svg" viewBox="0 0 600 600"><defs><style>.cls-1{fill:#5ca958;}.cls-2{fill:#fff;}</style></defs><g id="Layer_2" data-name="Layer 2"><g id="Layer_1-2" data-name="Layer 1"><g id="Group_1715" data-name="Group 1715"><g id="Group_975" data-name="Group 975"><g id="Group_691-2" data-name="Group 691-2"><g id="Ellipse_156-2-3" data-name="Ellipse 156-2-3"><circle class="cls-1" cx="300" cy="300" r="300"/></g></g></g><path class="cls-2" d="M292.27,419.67V398c-35-2.65-59-24.83-59.86-55.67l-.15-5h17l.1,4.77c.47,22.07,16.83,37.05,42.87,39.45v-75c-22.65-3.32-55.23-9-55.23-48.75,0-30.54,22.11-52.76,55.23-55.77V180.33h17v22c31.37,3.24,52.89,24.56,53.78,53.53l.15,5h-17l-.16-4.71c-.67-20.53-14.37-34.35-36.79-37.32v72.82c25.2,3.57,58.42,9.14,58.41,49,0,31.4-22.86,53.69-58.41,57.18v21.74Zm17-38.21c25.8-2.92,41.13-18,41.13-40.69,0-21.37-13.28-27.57-41.13-31.93Zm-17-162.93c-23.82,2.73-37.95,17.27-37.95,39.25,0,21.15,13.87,27.84,37.95,31.66Z"/></g></g></g></svg>