<?xml version="1.0" encoding="UTF-8"?>
<svg xmlns="http://www.w3.org/2000/svg" viewBox="0 0 300 300">
  <defs>
    <style>.cls-1{fill:#048dc6;}.cls-2{fill:#fff;}</style>
  </defs>
  <g id="Layer_2" data-name="Layer 2">
    <g id="Layer_1-2" data-name="Layer 1">
      <g id="Ellipse_286" data-name="Ellipse 286">
        <g id="Ellipse_405" data-name="Ellipse 405">
          <circle class="cls-1" cx="150" cy="150" r="150"></circle>
        </g>
      </g>
      <path class="cls-2" d="M240.36,128.3A61.44,61.44,0,0,0,117.63,124H75.46V228.82H180.28V189.73A61.51,61.51,0,0,0,240.36,128.3ZM82.68,221.6V131.23h34.86a61.52,61.52,0,0,0,55.51,58.23V221.6Zm96.23-39.08a54.22,54.22,0,0,1,0-108.43h0a54.22,54.22,0,1,1,0,108.43Z"></path>
      <polygon class="cls-2" points="182.53 103.01 175.3 103.01 175.3 124.69 153.61 124.69 153.61 131.93 175.3 131.93 175.3 153.61 182.53 153.61 182.53 131.93 204.21 131.93 204.21 124.69 182.53 124.69 182.53 103.01"></polygon>
    </g>
  </g>
</svg>
