<?xml version="1.0" encoding="UTF-8"?>
<svg xmlns="http://www.w3.org/2000/svg" viewBox="0 0 300 300">
  <defs>
    <style>.cls-1{fill:#003a52;}.cls-2{fill:#fff;}</style>
  </defs>
  <g id="Layer_2" data-name="Layer 2">
    <g id="Layer_1-2" data-name="Layer 1">
      <g id="Ellipse_283" data-name="Ellipse 283">
        <g id="Ellipse_402" data-name="Ellipse 402">
          <circle class="cls-1" cx="150" cy="150" r="150"></circle>
        </g>
      </g>
      <g id="Group_1149" data-name="Group 1149">
        <g id="Group_1148" data-name="Group 1148">
          <g id="Group_1147" data-name="Group 1147">
            <g id="Group_1142" data-name="Group 1142">
              <g id="Path_1303" data-name="Path 1303">
                <path class="cls-2" d="M149.83,142.24l-2.51-2.45a57.42,57.42,0,0,1,0-82l2.51-2.45,2.5,2.45a57.4,57.4,0,0,1,0,82Zm0-76.75a50.29,50.29,0,0,0,0,66.59,50.31,50.31,0,0,0,0-66.58Z"></path>
              </g>
            </g>
            <g id="Group_1143" data-name="Group 1143">
              <g id="Path_1304" data-name="Path 1304">
                <path class="cls-2" d="M158.56,174.12c-.92,0-1.85,0-2.78-.07l-3.5-.16.1-3.5a57.39,57.39,0,0,1,60.13-55.8l3.5.16-.1,3.5a57.4,57.4,0,0,1-57.35,55.87Zm50-52.43A50.28,50.28,0,0,0,159.74,167a50.26,50.26,0,0,0,48.79-45.3Z"></path>
              </g>
            </g>
            <g id="Group_1144" data-name="Group 1144">
              <g id="Path_1305" data-name="Path 1305">
                <path class="cls-2" d="M141.45,174.12A57.4,57.4,0,0,1,84.1,118.25l-.09-3.5,3.49-.16a57.39,57.39,0,0,1,60.13,55.79l.1,3.51-3.5.16C143.29,174.09,142.37,174.12,141.45,174.12Zm-50-52.43A50.28,50.28,0,0,0,140.26,167a49.88,49.88,0,0,0-15.82-31.88h0a49.9,49.9,0,0,0-33-13.42Z"></path>
              </g>
            </g>
            <g id="Group_1145" data-name="Group 1145">
              <g id="Path_1306" data-name="Path 1306">
                <path class="cls-2" d="M158.55,227.1c-.92,0-1.84,0-2.77-.07l-3.5-.16.1-3.5a57.39,57.39,0,0,1,60.13-55.8l3.5.16-.1,3.5a57.4,57.4,0,0,1-57.36,55.87Zm50-52.43a49.9,49.9,0,0,0-33,13.41h0A49.89,49.89,0,0,0,159.74,220a50.26,50.26,0,0,0,48.79-45.3Z"></path>
              </g>
            </g>
            <g id="Group_1146" data-name="Group 1146">
              <g id="Path_1307" data-name="Path 1307">
                <path class="cls-2" d="M141.46,227.09A57.4,57.4,0,0,1,84.1,171.23l-.09-3.5,3.49-.16a57.2,57.2,0,0,1,41.8,15.26h0a57,57,0,0,1,18.32,40.52l.1,3.5-3.5.17C143.3,227.07,142.37,227.09,141.46,227.09Zm-50-52.42A50.28,50.28,0,0,0,140.26,220a49.88,49.88,0,0,0-15.82-31.88h0a49.9,49.9,0,0,0-33-13.42Z"></path>
              </g>
            </g>
          </g>
        </g>
      </g>
    </g>
  </g>
</svg>
