<?xml version="1.0" encoding="UTF-8"?>
<!-- Generator: Adobe Illustrator 25.0.1, SVG Export Plug-In . SVG Version: 6.00 Build 0)  -->
<svg xmlns="http://www.w3.org/2000/svg" xmlns:xlink="http://www.w3.org/1999/xlink" version="1.1" id="Layer_1" x="0px" y="0px" viewBox="0 0 600 600" style="enable-background:new 0 0 600 600;" xml:space="preserve">
<style type="text/css">
	.st0{fill:#DC354D;}
	.st1{fill:#FFFFFF;}
</style>
<g id="Layer_2_1_">
	<g id="Layer_1-2">
		<g id="Group_1719">
			<circle class="st0" cx="300" cy="300" r="300"></circle>
			<g id="Group_694">
				<g id="Group_692">
					<g id="Path_1131">
						<polygon class="st1" points="468.1,325.8 435.4,198.7 297.6,131.9 168.7,198.4 131.9,325.5 118.4,321.6 156.9,188.8         297.4,116.3 447.3,188.9 481.7,322.3       "></polygon>
					</g>
				</g>
				<g id="Group_693">
					<g id="Path_1132">
						<path class="st1" d="M446.8,447.8H374v-127H223.5v127h-70.8V330.2l33.6-117.6l111.4-55.7l115.5,55.6l33.6,117.6L446.8,447.8z         M388,433.8h44.9V332.1l-31.4-109.7l-103.7-49.9l-99.7,49.9l-31.4,109.8v101.6h42.8v-127H388L388,433.8z"></path>
					</g>
				</g>
				<g id="Line_517">
					
						<rect x="289.7" y="274.9" transform="matrix(0.6224 -0.7827 0.7827 0.6224 -183.9527 374.9945)" class="st1" width="14" height="206.5"></rect>
				</g>
				<g id="Line_518">
					
						<rect x="196.5" y="371.5" transform="matrix(0.7784 -0.6278 0.6278 0.7784 -171.2657 271.8105)" class="st1" width="205.7" height="14"></rect>
				</g>
			</g>
		</g>
	</g>
</g>
</svg>
