<?xml version="1.0" encoding="UTF-8"?>
<svg xmlns="http://www.w3.org/2000/svg" viewBox="0 0 300 300">
  <defs>
    <style>.cls-1{fill:#5ca958;}.cls-2{fill:#fff;}</style>
  </defs>
  <g id="Layer_2" data-name="Layer 2">
    <g id="Layer_1-2" data-name="Layer 1">
      <g id="Group_1583" data-name="Group 1583">
        <g id="Group_1175" data-name="Group 1175">
          <g id="Group_1168" data-name="Group 1168">
            <g id="Group_1167" data-name="Group 1167">
              <g id="Ellipse_408" data-name="Ellipse 408">
                <circle class="cls-1" cx="150" cy="150" r="150"></circle>
              </g>
            </g>
          </g>
          <polygon class="cls-2" points="135.84 215.39 157.69 202.88 161.31 209.21 156.66 211.88 175.15 211.88 180.9 174.69 188.11 175.81 181.41 219.18 157.13 219.18 161.31 221.57 157.69 227.91 135.84 215.39"></polygon>
          <polygon class="cls-2" points="114.75 219.17 105.31 150.43 103.38 155.37 96.58 152.72 105.73 129.27 121.33 149.01 115.61 153.54 112.58 149.71 121.11 211.86 132.86 211.86 132.84 219.17 114.75 219.17"></polygon>
          <polygon class="cls-2" points="176.48 147.69 183.23 144.93 185.32 150.06 190.19 112.76 107.08 112.76 108.59 123.8 101.35 124.81 98.73 105.48 198.5 105.48 192.66 150.27 195.49 146.58 201.28 151.01 185.96 171 176.48 147.69"></polygon>
          <path class="cls-2" d="M95.27,99.63v-7.3h34.1a19.23,19.23,0,0,1,19-17.93h.28A19.43,19.43,0,0,1,167.9,92.33H202v7.3Zm65.27-7.3a12,12,0,0,0-11.89-10.39l0-1v1a12,12,0,0,0-11.91,10.39Z"></path>
        </g>
      </g>
    </g>
  </g>
</svg>
