<?xml version="1.0" encoding="UTF-8"?>
<svg xmlns="http://www.w3.org/2000/svg" viewBox="0 0 219.36 59.19">
  <defs>
    <style>.cls-1{fill:#edebe9;}.cls-2{fill:#cf3339;}.cls-3{fill:#5ca658;}.cls-4{fill:#3d8944;}.cls-5{fill:#a12b2f;}.cls-6{fill:#384954;}</style>
  </defs>
  <g id="Layer_2" data-name="Layer 2">
    <g id="Layer_1-2" data-name="Layer 1">
      <path class="cls-1" d="M59.19,29.6A29.6,29.6,0,1,1,29.6,0,29.59,29.59,0,0,1,59.19,29.6Z"></path>
      <path class="cls-2" d="M34.74,45.11l-.08,0h0c-.06,0-19-19-19-19l-.59-.59c-.05-.06-.08-.13-.13-.19l0,0a1.55,1.55,0,0,1-.18-.21,5.24,5.24,0,0,1-1-2.31,8,8,0,0,0-.33,1.05h0v0q-.08.34-.12.72s0,.07,0,.1c0,.27,0,.83,0,.83V35.69a7.43,7.43,0,0,0,2.16,5.22l0,0,3.82,3.82a7.42,7.42,0,0,0,5.11,2H34.5l.73,0,.11,0h0l.57-.08.23-.06h0l.13,0a3.37,3.37,0,0,0,.34-.09l.36-.12.21-.08a5.31,5.31,0,0,1-2.31-1Z"></path>
      <path class="cls-3" d="M15.78,19.43a4,4,0,0,0,.06,4.76c.1.13,5.14,5.14,5.14,5.14l4.21-4.21,3.61,3.61V13.93H14l3.62,3.61Z"></path>
      <path class="cls-4" d="M31.59,27.54,34,25.12h0l4.21,4.21,4.44-4.44a3.38,3.38,0,0,0,.69-.69,4,4,0,0,0,.06-4.77s0-.05-.06-.08l0,0,0,0c-.08-.11-1.76-1.81-1.76-1.81l3.62-3.61H30.4v14.8l1.19-1.19Z"></path>
      <path class="cls-5" d="M46,24.75a.49.49,0,0,0,0-.12v0l0-.17c0-.13,0-.27-.06-.4s0-.14,0-.21,0,0,0,0h0l0-.13a3.58,3.58,0,0,0-.09-.35c0-.12-.08-.23-.12-.35a2.09,2.09,0,0,1-.08-.23,5.33,5.33,0,0,1-1,2.33c-.08.11-.17.21-.25.3a1,1,0,0,1-.09.13L30.64,39s5,5,5.15,5.14a4,4,0,0,0,4.1.45l4-3.74A7.4,7.4,0,0,0,46,35.68V25.48A5.85,5.85,0,0,0,46,24.75Z"></path>
      <path class="cls-3" d="M70.66,13.92H86.21c5,0,8.51,1.32,10.72,3.58a10.21,10.21,0,0,1,2.91,7.66v.09a10.42,10.42,0,0,1-6.76,10.11l7.84,11.46H90.39l-6.62-10h-4v10H70.66Zm15.13,15.8c3.1,0,4.89-1.51,4.89-3.91v-.09c0-2.58-1.88-3.9-4.94-3.9h-6v7.9Z"></path>
      <path class="cls-3" d="M101,34.23v-.1c0-7.42,5.31-13.3,12.83-13.3,8.78,0,12.83,6.44,12.83,13.92,0,.56,0,1.22-.05,1.83h-17a5.24,5.24,0,0,0,5.5,4.18,7.67,7.67,0,0,0,5.63-2.58l4.94,4.08a13.29,13.29,0,0,1-11,5.17C106.66,47.43,101,42.12,101,34.23ZM118.31,32c-.33-2.82-2-4.61-4.42-4.61S110,29.25,109.48,32Z"></path>
      <path class="cls-6" d="M129.59,13.92h26.32v8h-17.2v5.6h15.56v7.56H138.71V46.82h-9.12Z"></path>
      <path class="cls-6" d="M158.64,13.92H185.1v7.76H167.66v5h15.79v7.19H167.66v5.22h17.67v7.75H158.64Z"></path>
      <path class="cls-6" d="M188.1,13.92h12.69c11.75,0,18.57,6.77,18.57,16.27v.09c0,9.49-6.91,16.54-18.75,16.54H188.1Zm12.83,24.82c5.45,0,9.08-3,9.08-8.32v-.09c0-5.27-3.63-8.32-9.08-8.32h-3.71V38.74Z"></path>
    </g>
  </g>
</svg>
