<?xml version="1.0" encoding="UTF-8"?>
<svg xmlns="http://www.w3.org/2000/svg" viewBox="0 0 600 600">
  <defs>
    <style>.cls-1{fill:#00d1c3;}.cls-2{fill:#fff;}</style>
  </defs>
  <g id="Layer_2" data-name="Layer 2">
    <g id="Layer_1-2" data-name="Layer 1">
      <g id="Ellipse_288" data-name="Ellipse 288">
        <g id="Ellipse_407" data-name="Ellipse 407">
          <circle class="cls-1" cx="300" cy="300" r="300"></circle>
        </g>
      </g>
      <path class="cls-2" d="M331,229.33a117.66,117.66,0,0,0,87.6-110.58l.2-7.18-7.17-.34A117.76,117.76,0,0,0,292.3,198.36a308.26,308.26,0,0,0-52.6-94.78l-11.11,9.51A298.83,298.83,0,0,1,285.34,226.3a124.33,124.33,0,1,0,45.64,3Zm4.93-76.1h0a102.06,102.06,0,0,1,67.54-27.47,103,103,0,0,1-100,92.77A102.1,102.1,0,0,1,335.91,153.23ZM300,459.58a109.76,109.76,0,0,1,0-219.52h0a109.76,109.76,0,1,1,0,219.51Z"></path>
      <polygon class="cls-2" points="307.32 298.6 292.69 298.6 292.69 342.5 248.78 342.5 248.78 357.14 292.69 357.14 292.69 401.03 307.32 401.03 307.32 357.14 351.22 357.14 351.22 342.5 307.32 342.5 307.32 298.6"></polygon>
    </g>
  </g>
</svg>
