<?xml version="1.0" encoding="UTF-8"?>
<svg xmlns="http://www.w3.org/2000/svg" viewBox="0 0 600 600">
  <defs>
    <style>.cls-1{fill:#009dde;}.cls-2{fill:#fff;}</style>
  </defs>
  <g id="Layer_2" data-name="Layer 2">
    <g id="Layer_1-2" data-name="Layer 1">
      <g id="Ellipse_287" data-name="Ellipse 287">
        <g id="Ellipse_406" data-name="Ellipse 406">
          <circle class="cls-1" cx="300" cy="300" r="300"></circle>
        </g>
      </g>
      <path class="cls-2" d="M373.23,330.84h77.56v-7.32a89.74,89.74,0,0,0-59.89-84.64,51.45,51.45,0,1,0-59.69,0A90,90,0,0,0,280,285a88.86,88.86,0,0,0-11.31-4.88,51.43,51.43,0,0,0,21.67-41.92h0a51.47,51.47,0,1,0-81.3,41.92,89.76,89.76,0,0,0-59.88,84.63v7.32H273.65a89.63,89.63,0,0,0-40.56,75.06v7.35H412.54v-7.35a89.77,89.77,0,0,0-59.9-84.64A51.49,51.49,0,0,0,373.23,330.84ZM324.23,197a36.83,36.83,0,0,1,36.83-36.83h0A36.87,36.87,0,0,1,397.9,197h0a36.83,36.83,0,0,1-36.14,36.82h-1.39A36.83,36.83,0,0,1,324.23,197Zm29.48,51.86a75.1,75.1,0,0,1,82.11,67.36H374.07a51.45,51.45,0,0,0-67.23-44.54A74.86,74.86,0,0,1,353.71,248.84ZM202.1,238.18a36.82,36.82,0,0,1,36.82-36.83h0a36.84,36.84,0,1,1-36.82,36.84Zm-25.44,84.59a75,75,0,0,1,62.06-33.13h.41a74.67,74.67,0,0,1,35.67,9.12,90,90,0,0,0-2.67,12.88,50.84,50.84,0,0,0-.79,8.95c0,.39,0,.78,0,1.16,0,.59,0,1.18,0,1.77h.08a51.35,51.35,0,0,0,15.45,33.9H164.19A75.11,75.11,0,0,1,176.66,322.77ZM397.55,439.86H248.06a75.1,75.1,0,0,1,149.49,0Zm-74.74-82.47h-.7A36.79,36.79,0,0,1,286,322a74,74,0,0,1,.64-8.48,36.83,36.83,0,1,1,36.85,43.84Z"></path>
    </g>
  </g>
</svg>
